<?xml version="1.0" standalone="no"?>
<!DOCTYPE svg PUBLIC "-//W3C//DTD SVG 20010904//EN"
 "http://www.w3.org/TR/2001/REC-SVG-20010904/DTD/svg10.dtd">
<svg version="1.0" xmlns="http://www.w3.org/2000/svg"
 width="700.000000pt" height="700.000000pt" viewBox="0 0 700.000000 700.000000"
 preserveAspectRatio="xMidYMid meet">
<metadata>
Created by potrace 1.11, written by Peter Selinger 2001-2013
</metadata>
<g transform="translate(0.000000,700.000000) scale(0.100000,-0.100000)"
fill="#000000" stroke="none">
<path d="M4980 6700 c-10 -10 -23 -34 -28 -52 -17 -60 -179 -479 -257 -662
-41 -98 -74 -180 -73 -181 13 -12 188 -53 297 -71 143 -22 143 -22 191 -29 50
-7 149 -22 195 -30 134 -24 371 -99 475 -149 85 -42 112 -58 254 -151 65 -42
144 -90 175 -105 l56 -28 6 36 c3 20 5 107 4 192 -1 148 -3 159 -34 248 -37
105 -115 266 -141 292 -3 3 -18 23 -34 45 -46 63 -132 143 -256 237 -181 136
-268 186 -555 323 -220 105 -246 114 -275 85z"/>
<path d="M4787 5224 c-1 -1 -42 -5 -91 -8 -166 -12 -380 -63 -559 -135 -613
-245 -1125 -832 -1356 -1555 -56 -174 -88 -323 -117 -536 -3 -25 -7 -133 -9
-240 -5 -282 24 -481 111 -760 19 -63 37 -122 38 -130 10 -49 20 -70 35 -70
14 0 14 -2 1 -10 -10 -6 -11 -10 -3 -10 7 0 12 -3 12 -7 -4 -25 4 -41 24 -52
12 -6 14 -9 5 -7 -25 7 -22 -7 4 -19 23 -11 57 -55 42 -55 -5 0 -14 10 -19 22
-6 12 -17 24 -25 26 -11 4 -10 -1 4 -17 11 -11 15 -21 11 -21 -4 0 -1 -8 8
-18 8 -9 16 -21 18 -27 4 -23 12 -35 21 -35 6 0 5 6 -2 15 -20 24 1 17 21 -7
23 -26 24 -37 4 -44 -13 -5 -12 -10 5 -31 11 -14 20 -32 20 -40 0 -8 4 -12 9
-9 4 3 16 -12 26 -34 11 -24 25 -40 34 -39 11 0 12 2 3 6 -17 7 -36 43 -22 43
5 0 10 -7 10 -15 0 -8 5 -15 11 -15 5 0 8 4 5 8 -3 5 1 9 9 9 12 0 12 -3 2
-15 -10 -13 -8 -14 10 -8 19 6 21 4 18 -14 -3 -16 0 -20 10 -16 22 8 30 -14
11 -30 -9 -8 -11 -9 -6 -2 15 19 12 32 -5 18 -15 -12 -20 -4 -16 22 1 9 -23
11 -31 2 -3 -3 15 -27 42 -54 26 -27 45 -52 42 -55 -3 -3 2 -5 12 -5 9 0 15
-4 11 -9 -3 -5 3 -12 13 -16 11 -3 24 -15 29 -28 l10 -22 12 24 c14 25 5 44
-9 21 -6 -9 -10 -10 -10 -3 0 23 20 24 48 2 24 -19 25 -21 5 -15 -13 4 -23 3
-23 -2 0 -13 26 -23 43 -16 7 2 21 -2 32 -11 19 -14 19 -15 1 -8 -13 4 -17 3
-12 -5 9 -15 -14 -26 -27 -13 -9 9 -8 11 4 6 10 -4 16 0 16 10 0 10 -6 14 -14
10 -8 -3 -17 -5 -19 -5 -12 0 0 -28 22 -54 17 -19 31 -26 45 -23 25 7 55 -3
40 -12 -6 -4 -2 -12 10 -19 19 -12 20 -11 14 7 -3 12 -2 21 3 21 5 0 9 -12 8
-27 -1 -19 5 -29 17 -31 9 -2 17 2 17 8 0 6 -4 9 -8 6 -4 -2 -8 7 -9 22 0 15
1 19 4 9 2 -9 9 -15 14 -12 5 3 18 1 29 -5 16 -8 18 -15 10 -29 -5 -10 -6 -22
-2 -26 4 -5 1 -5 -5 -1 -7 4 -13 2 -13 -5 0 -6 8 -9 19 -6 13 3 18 1 14 -8 -6
-17 23 -13 40 5 10 10 9 12 -6 7 -10 -4 -16 -3 -12 2 3 6 14 9 25 8 10 -1 16
-5 14 -9 -5 -8 11 -12 31 -8 6 1 5 -4 -2 -11 -10 -10 -15 -9 -28 1 -18 15 -20
0 -2 -19 10 -11 10 -13 0 -7 -7 4 -13 3 -13 -2 0 -21 15 -21 38 0 14 13 22 17
18 11 -4 -7 -2 -13 3 -13 6 0 11 -5 11 -11 0 -8 -5 -8 -15 1 -21 18 -19 1 6
-40 l21 -35 -21 19 c-11 11 -21 15 -21 9 0 -5 17 -18 38 -29 20 -10 39 -22 40
-26 2 -5 8 -8 13 -8 6 0 26 -11 46 -24 20 -14 43 -22 52 -19 9 4 13 3 9 -2 -4
-4 5 -15 20 -23 52 -28 117 -60 157 -77 22 -9 55 -23 72 -31 18 -7 40 -11 49
-7 11 4 15 2 11 -4 -9 -14 48 -34 70 -26 12 5 14 3 8 -7 -5 -8 -3 -11 6 -8 8
3 13 12 11 21 -2 9 3 27 10 39 7 13 11 26 10 30 -1 5 3 8 9 8 6 0 9 -3 7 -7
-2 -5 -10 -20 -17 -34 -12 -24 -11 -29 9 -49 12 -12 36 -24 51 -25 16 -1 32
-5 36 -9 16 -16 24 -4 8 14 -18 19 -41 28 -31 12 3 -5 -1 -9 -9 -9 -13 0 -13
3 1 18 15 16 18 15 51 -19 20 -20 32 -31 28 -23 -6 11 -4 13 11 7 34 -15 116
-18 108 -5 -4 8 -3 9 4 5 17 -10 15 3 -3 20 -8 9 -15 21 -15 27 0 7 5 4 11 -5
8 -15 13 -16 29 -5 11 6 20 18 20 25 0 10 -4 10 -16 -2 -22 -23 -30 -20 -10 3
10 11 15 25 10 32 -4 7 -3 10 4 5 5 -3 13 0 16 6 3 7 4 4 1 -8 -4 -16 -1 -20
16 -19 12 1 27 9 33 17 10 14 14 12 25 -13 9 -22 10 -33 2 -43 -6 -7 -8 -16
-4 -19 9 -9 23 -9 22 1 -3 20 3 28 21 28 11 0 20 -4 20 -8 0 -4 -9 -8 -20 -8
-11 0 -19 -3 -19 -7 5 -29 -2 -36 -19 -20 -23 21 -39 22 -22 2 12 -15 4 -20
-22 -16 -5 0 -8 -3 -8 -8 0 -6 9 -9 20 -8 11 1 20 5 20 10 0 4 6 5 13 0 17
-11 60 -11 75 0 7 6 12 6 12 0 0 -5 21 -8 48 -6 26 2 66 4 90 5 23 1 42 5 42
10 0 5 11 6 25 2 15 -4 32 -1 40 6 11 9 15 10 15 1 0 -8 6 -7 16 3 19 20 31
21 14 1 -10 -12 -7 -13 18 -5 17 4 33 5 37 2 3 -4 3 2 -1 13 -6 16 -5 18 7 7
16 -15 39 -16 39 -1 0 6 -7 9 -14 6 -10 -4 -13 -1 -10 8 7 18 -25 13 -40 -7
-9 -13 -13 -13 -24 -2 -16 18 -15 29 2 15 11 -9 14 -6 14 14 0 21 -3 23 -14
14 -12 -10 -13 -9 -8 5 4 10 13 15 21 12 8 -3 17 -6 20 -6 3 0 0 -7 -7 -15
-11 -13 -9 -15 9 -12 32 5 48 24 33 39 -7 7 -12 16 -12 22 0 5 7 1 16 -10 13
-16 15 -16 10 -1 -3 9 -2 17 2 18 4 0 21 2 37 4 23 3 26 2 10 -4 -11 -5 -23
-7 -27 -4 -5 2 -8 0 -8 -6 0 -5 -3 -17 -6 -25 -5 -12 -2 -15 12 -10 12 4 15 3
7 -3 -18 -13 -22 -69 -3 -58 5 3 7 12 4 19 -3 8 -1 17 4 20 15 9 43 -4 36 -16
-4 -6 -10 -5 -15 3 -4 7 -11 10 -16 6 -17 -18 22 -24 65 -12 25 8 49 12 53 10
4 -3 10 2 13 11 8 21 -11 45 -30 37 -8 -3 -14 -1 -14 4 0 16 34 11 47 -6 7 -9
10 -22 8 -28 -2 -7 0 -13 5 -13 17 0 19 17 6 35 -12 16 -11 21 8 37 24 20 15
24 -16 7 -15 -8 -19 -8 -14 0 4 6 0 11 -9 11 -9 0 -13 -5 -10 -10 3 -6 2 -10
-3 -10 -6 0 -13 8 -16 17 -4 10 -4 14 -1 11 4 -4 18 -3 32 3 13 5 22 5 19 1
-3 -5 8 -9 24 -9 22 0 27 3 20 12 -7 9 -6 14 4 18 10 4 13 1 9 -9 -3 -8 1 -14
8 -15 8 0 22 -2 32 -4 11 -2 16 1 14 8 -2 7 -13 11 -23 10 -10 -1 -13 0 -6 3
6 3 10 9 8 13 -3 4 1 8 9 8 8 0 12 -4 9 -9 -3 -4 2 -11 11 -14 12 -5 13 -10 4
-20 -6 -8 -15 -11 -20 -8 -5 3 -9 1 -9 -5 0 -17 17 -21 30 -6 12 15 40 10 40
-7 0 -6 -8 -4 -17 3 -15 12 -16 12 -10 -3 4 -13 2 -15 -10 -11 -12 5 -14 2 -9
-8 4 -8 -5 -1 -19 15 -26 28 -29 29 -53 15 -14 -8 -28 -20 -30 -28 -3 -10 5
-7 26 7 26 19 31 20 36 6 8 -22 -3 -38 -18 -25 -7 6 -17 6 -26 0 -23 -14 7
-30 36 -19 12 5 25 6 30 2 4 -4 4 -1 0 6 -5 9 -3 12 5 11 29 -5 89 14 89 27 0
8 -4 14 -8 14 -5 0 -16 6 -27 13 -17 13 -17 14 5 12 12 -1 27 -10 34 -21 6
-11 17 -20 25 -19 17 0 28 25 11 25 -6 0 -8 -4 -5 -10 14 -22 -3 -8 -23 20
-19 25 -20 28 -5 23 15 -6 16 -4 6 8 -10 12 -8 17 8 27 11 7 18 16 15 21 -3 4
2 8 10 8 11 0 9 -6 -8 -24 -12 -12 -19 -25 -16 -28 3 -3 19 10 37 30 17 20 31
32 31 27 0 -4 -5 -13 -12 -20 -9 -9 -9 -12 0 -12 7 0 12 -5 12 -11 0 -8 -5 -7
-16 2 -13 11 -15 11 -14 -2 4 -26 0 -39 -11 -39 -8 0 -8 5 1 15 7 8 8 15 2 15
-12 0 -37 -29 -30 -36 3 -3 15 -6 26 -7 11 0 18 -5 16 -9 -3 -4 0 -8 7 -8 7 0
9 9 6 23 -5 20 -5 20 7 5 11 -15 17 -16 44 -6 21 8 32 19 32 32 0 17 -3 16
-27 -8 -19 -19 -29 -23 -34 -14 -4 6 -4 19 0 27 4 9 6 28 5 44 -3 32 1 34 16
6 9 -16 8 -26 -5 -45 -19 -29 -2 -33 18 -4 10 14 20 18 33 14 12 -4 8 4 -13
24 -18 17 -33 35 -33 39 0 4 7 -1 15 -11 14 -18 15 -18 24 7 13 35 29 42 50
23 17 -15 19 -15 32 1 12 15 12 16 -3 10 -10 -3 -20 -2 -22 2 -9 14 6 21 25
11 14 -8 21 -5 32 10 7 11 17 17 20 13 4 -3 -2 -13 -14 -21 -27 -19 -9 -40 34
-38 24 1 32 6 32 20 0 11 -7 22 -15 24 -13 5 -13 3 -1 -11 9 -11 10 -17 2 -17
-6 0 -11 5 -11 12 0 9 -3 9 -12 0 -7 -7 -17 -12 -22 -12 -6 0 2 11 19 24 27
22 31 22 42 7 19 -24 16 -39 -13 -57 -24 -16 -26 -16 -55 5 -16 12 -29 17 -29
11 0 -5 9 -15 20 -22 11 -7 20 -17 20 -22 0 -4 -8 -2 -17 5 -15 12 -16 12 -10
-4 4 -11 3 -16 -4 -12 -5 4 -17 1 -26 -7 -14 -11 -16 -11 -9 1 6 9 5 12 -5 9
-8 -3 -13 -14 -12 -24 1 -10 0 -13 -3 -6 -5 10 -9 10 -20 1 -8 -6 -14 -16 -14
-21 0 -7 5 -6 13 1 8 6 16 8 19 5 4 -3 15 2 27 12 11 10 30 19 43 21 13 2 25
8 26 13 2 6 9 10 16 10 8 0 25 9 38 20 14 10 28 16 32 13 3 -3 6 -1 6 5 0 7 9
12 21 12 11 0 17 5 14 10 -3 6 2 10 12 10 15 0 76 35 118 67 6 5 29 21 53 37
23 16 42 31 42 33 0 2 -7 14 -15 27 -11 16 -23 22 -40 19 -14 -2 -36 -5 -50
-7 -14 -3 -23 0 -20 4 3 5 13 6 22 3 10 -4 14 -2 9 5 -7 11 9 25 32 28 8 2 11
-3 8 -13 -4 -9 -1 -13 6 -10 7 2 13 16 12 30 -1 22 2 25 17 17 28 -15 31 -28
9 -35 l-20 -6 21 -30 c19 -27 39 -31 39 -8 0 6 -4 8 -9 5 -5 -3 -12 1 -15 10
-8 21 -8 24 5 24 5 0 7 -5 4 -10 -3 -5 -2 -10 4 -10 5 0 11 6 14 13 3 9 7 9
19 -1 13 -11 20 -8 42 18 14 18 26 29 26 25 0 -4 6 0 13 7 15 15 20 61 6 53
-5 -4 -9 -2 -9 3 0 6 7 12 15 16 8 3 15 11 15 17 0 8 -4 8 -15 -1 -24 -20 -17
-3 9 23 20 20 26 22 41 11 9 -7 24 -10 33 -7 9 4 13 2 9 -4 -4 -6 -18 -10 -32
-10 -13 -1 -22 3 -19 8 3 5 1 9 -5 9 -5 0 -12 -4 -15 -9 -8 -13 21 -34 35 -25
8 5 9 3 4 -7 -12 -20 25 10 44 35 8 10 25 28 37 39 13 11 21 24 18 28 -2 4 5
13 16 19 11 6 20 15 20 21 0 6 -7 6 -19 -1 -27 -14 -28 -13 -28 16 0 16 2 21
7 14 4 -7 10 -8 12 -4 3 5 4 4 2 -2 -1 -6 8 -11 22 -11 13 0 21 3 18 8 -3 5
-1 9 4 9 4 0 32 29 60 64 34 43 47 66 38 69 -7 3 -19 1 -27 -4 -13 -8 -5 -13
15 -10 5 1 4 -5 -4 -13 -13 -17 -25 -22 -16 -7 8 12 -21 34 -33 26 -6 -3 -17
-2 -25 2 -12 7 -12 11 -2 25 12 16 14 16 34 -2 21 -20 21 -20 42 2 11 12 20
18 20 12 1 -5 8 3 16 19 8 15 20 27 27 27 8 0 9 -3 1 -8 -6 -4 -16 -17 -23
-30 -7 -12 -16 -20 -22 -17 -5 4 -9 1 -9 -4 0 -24 30 -9 51 27 13 20 26 39 29
42 13 12 44 66 42 74 -2 4 4 13 12 20 16 12 72 117 68 129 -1 4 3 7 9 7 5 0 7
5 4 10 -10 16 -37 -10 -31 -29 3 -9 -1 -6 -10 5 -10 14 -22 20 -35 17 -25 -7
-24 -15 6 -43 14 -13 25 -28 25 -34 0 -6 -5 -4 -10 4 -8 13 -11 13 -26 -1 -13
-13 -14 -21 -5 -38 8 -14 8 -21 1 -21 -5 0 -10 7 -10 15 0 19 -9 19 -30 0 -10
-9 -25 -13 -34 -9 -14 6 -14 9 6 26 13 11 22 24 20 30 -1 5 13 35 31 66 18 31
35 62 36 67 1 6 5 12 8 15 4 3 3 -1 -1 -7 -4 -7 -2 -13 3 -13 6 0 2 -9 -10
-21 -11 -11 -18 -24 -14 -27 4 -4 12 1 19 10 7 10 16 15 19 11 4 -3 7 1 7 10
0 9 5 17 11 17 5 0 8 -4 4 -9 -3 -5 -1 -12 4 -15 5 -3 11 1 14 8 7 17 -18 40
-32 31 -7 -4 -8 1 -4 11 5 13 3 15 -7 9 -8 -5 -11 -4 -6 3 4 6 13 9 20 6 7 -3
19 3 27 12 13 15 11 16 -11 10 -19 -6 -21 -5 -10 3 12 9 13 11 1 11 -8 0 -12
3 -9 6 4 3 15 1 26 -5 16 -9 24 -7 36 5 9 8 16 11 16 6 0 -5 -10 -17 -22 -26
-16 -12 -17 -15 -6 -12 10 3 20 0 24 -6 5 -7 2 -8 -6 -3 -10 6 -12 4 -7 -8 3
-9 3 -16 -1 -16 -20 3 -32 -2 -27 -11 4 -6 11 -7 17 -4 5 4 2 -5 -7 -20 -10
-14 -13 -26 -8 -26 12 0 49 80 45 97 -2 7 2 13 8 13 5 0 9 3 8 8 -1 4 4 18 11
31 12 21 11 23 -3 18 -9 -4 -16 -2 -16 3 0 6 10 10 22 10 12 0 19 3 15 6 -3 4
1 20 9 36 8 16 12 33 9 38 -3 5 0 12 6 15 5 4 8 13 5 20 -3 8 0 16 7 18 7 2 0
10 -15 17 -16 7 -28 17 -28 22 0 12 10 10 27 -8 19 -19 30 -9 38 33 4 26 1 34
-16 43 -15 9 -24 8 -35 -1 -12 -10 -13 -9 -8 5 3 9 12 16 19 16 7 0 15 3 18 8
2 4 2 1 0 -7 -2 -8 2 -11 12 -7 9 3 13 2 10 -4 -3 -6 -1 -10 4 -10 20 0 19 89
-1 101 -20 13 -28 11 -22 -6 4 -10 0 -15 -12 -15 -11 0 -15 4 -9 8 6 4 11 16
12 27 1 11 4 31 8 45 9 35 42 235 49 298 7 58 8 319 2 367 -2 17 -7 57 -11 90
-25 208 -138 569 -264 838 -186 397 -443 699 -786 919 -97 63 -233 134 -309
163 -65 24 -231 69 -296 79 -19 3 -62 10 -95 16 -94 16 -387 34 -398 24z
m-304 -183 c-3 -10 -1 -21 4 -24 12 -7 90 -19 268 -42 182 -23 397 -97 585
-200 346 -192 623 -489 810 -870 150 -307 215 -586 215 -920 -1 -160 -7 -230
-29 -347 -3 -13 -10 -49 -16 -81 -32 -164 -139 -431 -241 -602 -108 -179 -307
-406 -454 -517 -259 -196 -557 -319 -855 -355 -84 -10 -345 -10 -435 0 -163
19 -367 77 -528 151 -98 45 -120 52 -210 72 -90 19 -128 45 -251 171 -211 216
-379 558 -421 856 -3 27 -8 59 -11 70 -18 93 -24 354 -11 517 43 531 240 1041
558 1445 79 100 261 284 354 356 183 143 393 254 595 315 55 16 74 22 77 23 0
1 -1 -7 -4 -18z m2443 -2723 c0 -10 -4 -18 -8 -18 -4 0 -8 7 -8 16 0 11 -6 14
-20 9 -11 -3 -20 -2 -20 3 0 4 13 8 28 8 20 0 28 -5 28 -18z m-31 -66 c21 -15
14 -30 -13 -27 -15 2 -34 -2 -42 -9 -13 -10 -13 -9 0 9 16 21 32 35 40 35 3 0
10 -4 15 -8z m5 -52 c0 -5 -2 -10 -4 -10 -3 0 -8 5 -11 10 -3 6 -1 10 4 10 6
0 11 -4 11 -10z m-36 -41 c-3 -5 1 -9 8 -9 7 0 0 -12 -16 -26 -31 -27 -48 -28
-52 -1 -1 9 2 15 7 11 5 -3 7 -10 4 -15 -7 -11 -3 -11 19 -3 13 5 12 9 -6 23
-17 14 -18 18 -5 18 9 0 14 -4 12 -8 -3 -4 2 -9 10 -13 18 -6 19 -1 5 24 -8
16 -8 18 5 14 8 -3 12 -10 9 -15z m-4 -69 c-8 -6 -11 -10 -5 -10 5 0 5 -4 -1
-10 -7 -7 -21 -6 -45 5 -31 15 -32 16 -7 12 16 -2 36 2 45 9 10 7 20 10 23 8
2 -3 -2 -9 -10 -14z m-35 -40 c3 -5 -4 -6 -15 -3 -11 3 -28 -1 -37 -8 -15 -13
-15 -12 -3 7 13 20 44 22 55 4z m-22 -17 c-7 -2 -13 -9 -13 -14 0 -6 5 -7 10
-4 6 3 10 1 10 -4 0 -14 -17 -14 -25 -1 -8 13 3 30 18 29 9 0 9 -2 0 -6z m-33
-28 c0 -8 5 -15 12 -15 6 0 9 -2 6 -5 -9 -10 -35 5 -35 20 0 8 4 15 9 15 4 0
8 -7 8 -15z m-52 -205 c7 -11 11 -20 9 -20 -2 0 -12 9 -22 20 -10 11 -14 20
-9 20 5 0 15 -9 22 -20z m-8 -54 c0 -3 -4 -8 -10 -11 -5 -3 -10 -1 -10 4 0 6
5 11 10 11 6 0 10 -2 10 -4z m-54 -68 c-2 -21 -7 -32 -15 -30 -20 4 -40 -18
-33 -36 3 -9 -6 -4 -21 12 -31 33 -33 38 -14 30 8 -3 20 3 28 12 12 15 11 16
-11 11 -14 -4 -19 -4 -11 -1 11 5 11 8 0 16 -10 7 -8 8 6 3 28 -10 59 -8 63 5
7 19 10 10 8 -22z m-103 -55 c-4 -9 -2 -14 3 -10 6 3 15 3 21 -1 8 -5 5 -15
-9 -32 -11 -14 -18 -18 -15 -9 3 9 -1 26 -9 38 -10 13 -11 21 -4 21 6 0 8 5 4
12 -4 7 -3 8 4 4 6 -4 8 -14 5 -23z m87 3 c0 -3 -4 -8 -10 -11 -5 -3 -10 -1
-10 4 0 6 5 11 10 11 6 0 10 -2 10 -4z m-3690 -10 c0 -3 -4 -8 -10 -11 -5 -3
-10 -1 -10 4 0 6 5 11 10 11 6 0 10 -2 10 -4z m3586 -43 c-3 -4 -6 -1 -6 5 0
7 -4 12 -9 12 -6 0 -9 -9 -8 -20 1 -12 7 -18 14 -16 7 3 10 -1 7 -9 -5 -12
-10 -12 -30 2 -28 18 -31 25 -7 16 11 -4 14 -3 9 6 -4 6 -2 19 5 27 11 14 14
13 22 -1 5 -9 6 -19 3 -22z m-3524 -101 c-4 -11 -6 -11 -12 -1 -5 7 -6 18 -3
26 3 8 0 12 -8 10 -8 -2 -11 -2 -6 0 4 3 7 12 7 21 1 10 7 4 14 -13 7 -16 11
-36 8 -43z m3484 15 c18 7 18 6 2 -11 -10 -9 -18 -23 -18 -29 0 -7 7 -4 14 6
9 12 16 14 21 8 3 -6 1 -11 -5 -11 -5 0 -20 -15 -31 -32 -12 -18 -18 -24 -14
-13 12 33 11 68 -3 72 -6 3 -10 -1 -9 -9 2 -7 2 -10 0 -5 -10 16 -24 6 -18
-14 7 -20 6 -20 -14 -2 -24 20 -26 24 -8 21 6 -2 11 2 10 9 -2 8 4 10 15 6 15
-6 16 -5 2 12 -14 18 -14 18 11 2 16 -11 33 -15 45 -10z m-3462 -22 c-5 -11
-2 -14 12 -9 20 8 19 6 -7 -14 -14 -10 -16 -9 -14 10 3 26 3 28 10 28 2 0 2
-7 -1 -15z m3415 -38 c6 10 11 13 11 6 0 -6 -5 -15 -11 -18 -6 -4 -8 -13 -5
-21 3 -8 1 -14 -4 -14 -6 0 -10 7 -10 15 0 9 -7 14 -17 12 -29 -4 -45 -18 -39
-34 3 -8 2 -12 -2 -10 -4 3 -15 -6 -25 -19 -21 -28 -12 -32 15 -7 16 14 20 11
17 -13 0 -4 5 -10 11 -14 9 -5 9 -9 1 -14 -10 -6 -15 6 -12 27 2 10 -17 9 -24
-2 -3 -5 -1 -12 5 -16 5 -3 10 -12 10 -18 0 -7 -4 -6 -10 3 -13 21 -53 22 -45
1 4 -10 -2 -8 -17 7 l-23 23 23 19 c13 10 30 16 37 13 8 -3 15 0 15 6 0 6 -4
11 -10 11 -5 0 -10 5 -10 11 0 8 6 7 17 -2 14 -12 16 -12 11 1 -3 8 4 28 15
43 l19 28 23 -21 c22 -21 24 -21 34 -3z m-3374 -5 c-3 -3 -11 0 -18 7 -9 10
-8 11 6 5 10 -3 15 -9 12 -12z m91 -101 c-4 -5 -2 -11 3 -13 5 -1 3 -8 -4 -15
-10 -9 -12 -6 -12 13 0 13 4 24 9 24 5 0 7 -4 4 -9z m-26 -21 c0 -5 -2 -10 -4
-10 -3 0 -8 5 -11 10 -3 6 -1 10 4 10 6 0 11 -4 11 -10z m65 -40 c-8 -14 -35
0 -35 18 0 13 3 12 16 -4 14 -18 15 -18 9 6 -5 21 -4 22 5 7 6 -9 8 -21 5 -27z
m3094 17 c19 -9 25 -9 28 1 3 6 10 12 16 12 6 0 4 -8 -6 -17 -14 -15 -19 -15
-43 -3 -23 13 -27 13 -39 -3 -10 -14 -14 -15 -18 -3 -3 8 -4 16 -1 18 8 9 40
6 63 -5z m-78 -41 c-7 -8 -10 -21 -6 -28 4 -7 -1 -4 -9 6 -9 11 -16 25 -15 30
0 6 3 5 6 -2 7 -19 23 -4 16 16 -5 14 -3 15 7 5 11 -10 11 -15 1 -27z m-2997
9 c-10 -8 -23 -15 -28 -15 -6 0 -1 7 10 15 10 8 23 15 28 15 6 0 1 -7 -10 -15z
m2954 -72 c-12 -13 -16 -23 -10 -23 7 0 12 -4 12 -10 0 -5 -6 -7 -14 -4 -17 7
-30 35 -14 31 6 -1 13 4 15 11 3 7 -1 10 -10 6 -8 -3 -18 -1 -22 5 -4 7 0 8
11 4 13 -5 15 -3 9 8 -6 11 -5 12 6 2 17 -17 37 -17 21 -1 -7 7 -12 17 -12 23
0 5 7 1 15 -9 13 -18 13 -22 -7 -43z m38 -28 c-9 -7 -16 -17 -16 -23 0 -17
-37 -34 -45 -21 -4 6 -14 8 -23 4 -9 -3 -13 -3 -10 1 4 3 -5 17 -20 31 -15 13
-21 21 -13 17 9 -4 19 0 28 11 7 11 13 14 13 9 0 -6 -5 -15 -12 -22 -6 -6 -8
-15 -4 -19 4 -4 12 -1 17 7 9 12 10 11 5 -4 -4 -13 -2 -17 8 -13 7 3 19 0 25
-6 14 -14 22 -6 23 24 1 13 6 30 12 37 8 11 11 10 19 -4 7 -13 5 -20 -7 -29z
m-2886 -15 c-24 -15 -36 -11 -14 4 10 8 21 12 24 10 2 -3 -2 -9 -10 -14z m38
-2 c-7 -5 -22 -13 -33 -19 l-20 -10 20 16 c11 9 19 20 18 25 -2 5 4 7 13 3 13
-5 13 -7 2 -15z m33 -26 c-7 -2 -18 1 -23 6 -8 8 -4 9 13 5 13 -4 18 -8 10
-11z m2588 -55 c13 4 13 3 2 -5 -11 -8 -9 -12 10 -22 13 -7 25 -14 27 -15 2
-2 -8 -14 -21 -27 -22 -22 -26 -23 -36 -9 -11 14 -11 14 -7 -1 3 -10 4 -18 2
-18 -3 0 -13 -3 -23 -6 -11 -4 -14 -3 -6 3 16 11 20 45 7 50 -7 2 -11 -4 -10
-14 1 -13 -5 -17 -18 -15 -17 3 -18 2 -7 -12 12 -14 11 -16 -3 -10 -21 8 -15
30 8 28 9 -1 15 3 13 10 -3 6 -11 9 -18 7 -31 -8 -59 -9 -54 -1 3 5 13 6 22 3
10 -4 14 -2 10 4 -6 9 0 11 41 14 30 3 44 19 30 38 -10 13 -10 14 1 4 7 -6 21
-9 30 -6z m42 -1 c-9 -11 -6 -13 14 -13 20 0 23 2 14 13 -6 8 -7 14 -3 14 5 0
14 -8 21 -18 10 -17 8 -19 -22 -18 -39 1 -55 13 -35 26 21 13 24 12 11 -4z
m-86 -6 c3 -5 1 -10 -4 -10 -6 0 -11 5 -11 10 0 6 2 10 4 10 3 0 8 -4 11 -10z
m-2421 -22 c-3 -4 -9 -8 -15 -8 -5 0 -9 4 -9 8 0 5 7 9 15 9 8 0 12 -4 9 -9z
m2536 -12 c0 -3 -4 -8 -10 -11 -5 -3 -10 -1 -10 4 0 6 5 11 10 11 6 0 10 -2
10 -4z m-192 -38 c11 4 9 -2 -6 -18 -15 -16 -19 -27 -12 -34 15 -15 12 -24
-10 -36 -14 -7 -20 -7 -20 0 0 5 7 10 15 10 8 0 15 4 15 9 0 13 -30 35 -37 27
-4 -4 -1 -12 7 -17 13 -9 13 -10 0 -6 -9 2 -14 14 -12 27 2 19 0 21 -13 10 -9
-7 -15 -8 -15 -2 0 17 28 22 40 7 7 -8 16 -12 21 -9 11 6 12 24 2 23 -17 -3
-24 2 -17 12 4 7 10 7 16 1 6 -6 18 -8 26 -4z m-2228 -42 c-8 -10 -8 -16 -2
-16 6 0 17 9 25 20 8 11 17 17 20 14 3 -4 -4 -14 -16 -24 -18 -15 -19 -20 -8
-34 18 -21 28 -20 36 5 6 17 9 18 23 7 13 -11 15 -11 9 4 -4 12 -2 15 9 11 11
-4 12 -9 4 -19 -7 -7 -19 -10 -28 -7 -14 6 -15 4 -5 -8 10 -12 6 -14 -27 -14
-21 0 -36 3 -34 7 3 5 -2 15 -10 24 -12 11 -13 20 -6 33 6 11 6 22 0 30 -6 6
-2 5 7 -3 13 -12 14 -18 3 -30z m2270 -13 c0 -7 -4 -13 -10 -13 -5 0 -9 5 -7
11 1 6 -4 14 -11 16 -8 3 -10 -2 -6 -14 5 -14 4 -15 -4 -4 -6 8 -8 20 -5 27 6
16 43 -4 43 -23z m-140 17 c0 -5 -4 -10 -10 -10 -5 0 -10 5 -10 10 0 6 5 10
10 10 6 0 10 -4 10 -10z m170 -4 c0 -3 -4 -8 -10 -11 -5 -3 -10 -1 -10 4 0 6
5 11 10 11 6 0 10 -2 10 -4z m-2258 -28 c-7 -7 -12 -8 -12 -2 0 14 12 26 19
19 2 -3 -1 -11 -7 -17z m85 -13 c0 -8 -5 -11 -10 -8 -5 3 -7 0 -5 -8 3 -8 14
-13 24 -11 16 2 16 1 4 -7 -8 -5 -11 -13 -7 -17 7 -8 37 14 37 27 0 5 -7 9
-15 9 -8 0 -15 5 -15 10 0 16 7 12 40 -20 21 -20 26 -30 15 -30 -8 0 -15 5
-15 11 0 6 -7 3 -16 -5 -20 -21 -23 -20 -49 8 -20 22 -21 26 -7 40 20 19 19
19 19 1z m116 -48 c9 -8 17 -18 17 -22 0 -4 -6 -2 -14 4 -11 9 -13 6 -13 -14
0 -26 12 -34 20 -12 4 9 6 9 6 0 1 -16 -14 -24 -33 -17 -13 5 -14 9 -5 20 14
17 -2 19 -19 2 -16 -16 -15 -28 2 -28 8 0 18 -4 21 -10 13 -21 -16 -8 -47 21
-18 17 -27 28 -20 24 6 -3 12 -1 12 4 0 6 5 11 11 11 8 0 8 -5 -1 -15 -20 -24
5 -17 29 9 l22 23 -23 17 c-17 12 -17 14 -3 6 11 -5 28 -16 38 -23z m-149 2
c-3 -5 0 -9 7 -9 7 0 10 -3 7 -6 -4 -3 -19 1 -34 9 l-28 15 27 0 c15 0 24 -4
21 -9z m258 -33 c4 3 5 -2 2 -10 -3 -9 -10 -16 -16 -16 -5 0 -6 5 -3 10 3 6
-1 10 -10 10 -9 0 -13 -5 -10 -10 4 -6 -5 -5 -19 2 -14 6 -26 16 -26 22 0 6 5
5 12 -2 17 -17 33 -15 18 3 -11 13 -9 14 15 1 16 -8 32 -13 37 -10z m-219 -3
c-7 -2 -19 -2 -25 0 -7 3 -2 5 12 5 14 0 19 -2 13 -5z m1680 -12 c-12 -11 -23
-26 -26 -33 -2 -7 -7 -10 -11 -7 -7 6 38 59 50 59 4 0 -2 -9 -13 -19z m-1438
-1 c-9 -14 23 -62 36 -54 5 3 16 0 24 -6 11 -9 15 -9 15 -1 0 6 6 11 13 11 6
-1 1 -10 -12 -20 -13 -11 -28 -20 -35 -19 -7 0 -7 2 2 6 21 8 13 21 -13 21
-25 0 -34 -12 -15 -21 6 -3 5 -4 -2 -3 -7 2 -12 13 -10 26 2 19 0 21 -13 10
-8 -7 -12 -16 -9 -21 3 -5 -3 -6 -13 -2 -15 5 -16 3 -6 -7 13 -14 36 -22 66
-21 9 0 15 -4 12 -10 -11 -17 6 -9 32 15 25 23 53 25 53 4 0 -6 -7 -5 -16 3
-13 11 -15 11 -14 -2 4 -26 0 -39 -11 -39 -8 0 -8 5 1 15 8 10 9 15 1 15 -6 0
-16 -9 -23 -19 -10 -17 -14 -18 -34 -5 -12 8 -32 17 -45 19 -12 3 -26 10 -30
16 -4 6 -13 8 -20 5 -8 -4 -6 -1 3 7 10 8 14 18 10 22 -4 5 -1 5 6 1 7 -4 19
-2 27 4 19 15 20 37 3 23 -17 -13 -56 -14 -63 -2 -4 5 -12 9 -18 9 -7 -1 -2
-9 10 -19 21 -17 21 -20 6 -32 -13 -11 -15 -11 -9 -1 11 18 -12 42 -31 35 -13
-5 -12 -2 3 14 13 13 23 17 31 11 23 -18 63 -16 74 3 5 11 12 19 15 19 3 0 2
-5 -1 -10z m48 -13 c-2 -4 -3 -11 -3 -17 0 -5 -5 -10 -11 -10 -5 0 -7 5 -4 10
3 6 1 10 -4 10 -6 0 -11 4 -11 9 0 5 8 8 18 7 9 -2 16 -6 15 -9z m1345 -1
c-10 -7 -15 -16 -11 -19 3 -4 1 -7 -5 -7 -18 0 -14 18 6 29 24 15 30 13 10 -3z
m-1314 -11 c-4 -8 -11 -15 -16 -15 -6 0 -5 6 2 15 7 8 14 15 16 15 2 0 1 -7
-2 -15z m54 -11 c12 -8 22 -12 22 -8 0 4 6 -1 14 -12 13 -17 18 -17 36 -6 12
7 25 11 28 8 3 -3 -1 -6 -9 -6 -8 -1 -3 -8 11 -16 16 -10 18 -13 5 -8 -11 4
-28 6 -39 6 -10 -1 -34 10 -53 23 -20 13 -42 21 -51 18 -10 -4 -13 -2 -8 5 9
16 17 15 44 -4z m62 -14 c0 -5 -2 -10 -4 -10 -3 0 -8 5 -11 10 -3 6 -1 10 4
10 6 0 11 -4 11 -10z m-300 -10 c0 -5 -2 -10 -4 -10 -3 0 -8 5 -11 10 -3 6 -1
10 4 10 6 0 11 -4 11 -10z m272 -27 c17 -15 14 -43 -4 -43 -6 0 -4 7 3 16 12
15 11 16 -9 10 -14 -5 -22 -3 -22 4 0 6 5 8 10 5 6 -3 10 -1 10 4 0 6 -4 11
-8 11 -5 0 -17 7 -28 16 -18 14 -18 14 6 3 14 -6 33 -18 42 -26z m123 6 c-4
-5 -12 -9 -18 -8 -9 0 -8 2 1 6 6 2 9 10 6 15 -4 7 -2 8 5 4 6 -4 9 -12 6 -17z
m868 -6 c-9 -16 -18 -30 -20 -32 -2 -3 -2 7 -1 22 1 14 5 24 9 21 4 -2 10 0
14 6 3 5 8 10 11 10 2 0 -3 -12 -13 -27z m-818 -1 c-3 -3 -11 0 -18 7 -9 10
-8 11 6 5 10 -3 15 -9 12 -12z m40 -2 c3 -6 -1 -7 -9 -4 -18 7 -21 14 -7 14 6
0 13 -4 16 -10z m796 -8 c-12 -22 4 -43 24 -36 7 3 15 1 19 -4 3 -5 -5 -8 -17
-7 -12 1 -26 -3 -30 -9 -5 -7 -6 -3 -3 8 5 13 2 17 -9 12 -14 -5 -14 -2 0 24
9 17 18 30 21 30 2 0 0 -8 -5 -18z m-847 -8 c9 -8 16 -11 16 -5 0 19 20 12 46
-16 18 -19 21 -29 12 -34 -7 -4 -16 -5 -20 -3 -4 3 -8 1 -8 -5 0 -17 15 -20
34 -5 17 12 18 16 6 41 -8 16 -16 31 -18 36 -2 4 1 7 8 7 6 0 9 -4 5 -9 -3 -5
-1 -12 4 -15 5 -4 11 -1 14 6 2 7 3 4 1 -7 -2 -15 2 -21 16 -21 20 0 27 12 11
18 -5 2 -3 9 4 15 11 10 13 8 11 -15 -1 -19 -7 -26 -19 -24 -9 2 -17 -3 -18
-10 0 -7 -2 -21 -4 -30 -2 -10 1 -18 6 -18 5 0 9 -5 9 -11 0 -8 -5 -8 -15 1
-10 9 -15 9 -15 1 0 -6 -5 -11 -12 -11 -6 0 -3 9 7 20 10 11 13 20 8 20 -6 0
-16 -7 -23 -15 -9 -10 -17 -12 -30 -5 -9 5 -21 6 -25 2 -5 -4 -4 -1 0 7 6 11
4 13 -8 8 -11 -4 -14 -2 -10 9 5 13 8 13 24 -2 11 -10 21 -15 24 -12 3 3 -1
11 -9 17 -16 13 -11 41 6 41 6 0 6 -6 -2 -14 -9 -12 -8 -15 9 -13 25 2 26 10
4 32 -15 16 -18 15 -35 -7 -10 -12 -16 -16 -13 -7 3 9 -1 22 -10 29 -12 10
-18 10 -30 0 -9 -7 -13 -20 -10 -29 3 -9 -3 -5 -13 7 -17 22 -20 23 -35 7 -22
-22 -21 -30 4 -32 17 -2 18 1 9 13 -8 8 -8 14 -2 14 20 0 20 -28 1 -46 -18
-17 -19 -17 -13 -1 3 10 3 17 -2 16 -28 -5 -32 2 -17 29 15 27 53 42 53 21 0
-6 7 -3 16 5 8 9 19 16 24 16 5 0 16 -7 24 -16z m220 -6 c-3 -4 -9 -8 -15 -8
-5 0 -9 4 -9 8 0 5 7 9 15 9 8 0 12 -4 9 -9z m329 -13 c-7 -19 -19 -19 -26 -1
-4 11 -1 13 10 9 12 -5 14 -3 8 7 -5 8 -4 11 3 6 6 -4 9 -13 5 -21z m77 14 c0
6 5 11 10 11 6 0 6 -7 -2 -19 -9 -16 -14 -17 -25 -6 -18 19 -17 30 2 15 10 -9
15 -9 15 -1z m61 1 c10 -6 19 -16 19 -23 0 -8 -3 -9 -8 -1 -4 6 -16 16 -27 22
-25 14 -11 16 16 2z m109 0 c0 -5 -10 -10 -22 -9 -22 0 -22 1 -3 9 11 5 21 9
23 9 1 1 2 -3 2 -9z m-1012 -25 c-6 -14 -13 -23 -15 -21 -5 5 15 46 22 46 3 0
-1 -11 -7 -25z m535 7 c13 -11 17 -10 26 5 6 10 11 15 11 10 0 -4 -6 -16 -12
-28 -11 -17 -10 -22 6 -34 19 -14 36 -12 36 6 0 5 -3 8 -7 8 -29 -5 -33 2 -17
26 9 14 21 25 26 25 5 0 2 -7 -6 -16 -21 -21 -20 -29 4 -31 19 -2 28 11 13 20
-5 2 -2 2 6 0 8 -2 11 2 8 10 -3 8 0 14 7 14 6 0 12 -8 12 -18 0 -10 -2 -16
-4 -14 -3 2 -14 -7 -24 -21 -18 -23 -19 -26 -4 -42 14 -16 14 -18 -4 -18 -10
0 -16 4 -13 9 3 5 -1 13 -8 18 -22 14 -33 10 -19 -6 9 -10 9 -15 1 -15 -6 0
-11 5 -11 11 0 8 -5 8 -15 -1 -10 -9 -15 -9 -15 -1 0 6 4 11 9 11 5 0 8 8 6
18 -2 9 -4 23 -4 30 -1 8 -8 11 -19 8 -11 -4 -25 1 -35 12 -15 17 -15 18 7 17
13 0 30 -6 39 -13z m152 8 c-4 -6 3 -9 16 -7 12 1 23 -4 25 -11 1 -7 0 -8 -3
-2 -9 19 -20 10 -20 -15 0 -25 11 -34 20 -15 3 6 4 5 3 -2 -4 -18 -31 -16 -31
2 -1 22 -15 41 -26 35 -5 -4 -9 -2 -9 4 0 5 6 12 13 14 18 8 19 8 12 -3z
m-635 -36 c0 -3 -8 0 -17 7 -15 12 -16 12 -10 -3 4 -12 2 -15 -8 -12 -11 5
-12 10 -3 24 10 15 14 16 25 5 7 -8 13 -17 13 -21z m150 26 c0 -5 -4 -10 -10
-10 -5 0 -10 5 -10 10 0 6 5 10 10 10 6 0 10 -4 10 -10z m604 4 c14 -5 14 -9
4 -22 -11 -13 -10 -14 10 -8 14 5 22 3 22 -4 0 -6 -4 -9 -9 -6 -5 4 -18 -6
-29 -21 -16 -22 -23 -25 -34 -15 -8 6 -18 9 -21 5 -4 -3 -7 -1 -7 5 0 15 13
15 28 0 6 -6 15 -8 19 -3 5 4 2 10 -4 12 -7 3 -13 9 -13 15 0 7 5 6 14 -1 11
-9 14 -6 14 14 0 21 -3 23 -14 14 -12 -10 -13 -9 -8 5 7 18 7 18 28 10z m216
-14 c0 -5 -2 -10 -4 -10 -3 0 -8 5 -11 10 -3 6 -1 10 4 10 6 0 11 -4 11 -10z
m-820 -20 c0 -5 -4 -10 -10 -10 -5 0 -10 5 -10 10 0 6 5 10 10 10 6 0 10 -4
10 -10z m480 0 c0 -5 -4 -10 -10 -10 -5 0 -10 5 -10 10 0 6 5 10 10 10 6 0 10
-4 10 -10z m80 0 c0 -5 -4 -10 -10 -10 -5 0 -10 5 -10 10 0 6 5 10 10 10 6 0
10 -4 10 -10z m-108 -46 c-8 -14 -10 -14 -21 0 -11 13 -11 19 0 32 11 14 13
14 21 0 5 -9 5 -23 0 -32z m60 6 c10 0 18 -4 18 -8 0 -16 -38 -7 -50 13 -10
16 -10 18 1 8 7 -7 21 -13 31 -13z m128 16 c0 -3 -4 -8 -10 -11 -5 -3 -10 -1
-10 4 0 6 5 11 10 11 6 0 10 -2 10 -4z m-320 -36 c0 -5 -4 -10 -10 -10 -5 0
-10 5 -10 10 0 6 5 10 10 10 6 0 10 -4 10 -10z"/>
<path d="M3968 3625 c-1 -1 -37 -5 -78 -8 -304 -23 -627 -245 -746 -513 -76
-171 -100 -442 -59 -664 50 -269 349 -569 640 -644 96 -24 115 -27 220 -31
277 -10 529 93 720 296 117 124 194 279 230 464 18 94 13 289 -9 384 -63 263
-250 497 -488 613 -62 30 -198 80 -198 73 0 -2 -14 0 -31 5 -18 5 -64 12 -103
15 -39 4 -76 8 -83 10 -6 2 -13 2 -15 0z m-193 -507 c60 -31 104 -77 136 -138
18 -36 23 -61 23 -125 1 -99 -24 -155 -100 -224 -141 -129 -346 -95 -460 78
-24 38 -29 55 -31 120 -2 105 23 169 96 241 68 67 102 80 206 76 63 -2 91 -8
130 -28z m126 -759 c86 -29 140 -103 145 -200 4 -68 -21 -111 -94 -161 -40
-28 -56 -33 -108 -33 -49 0 -68 5 -102 28 -66 43 -97 98 -97 171 0 52 5 68 32
107 58 84 140 116 224 88z"/>
<path d="M6870 2240 c0 -5 5 -10 10 -10 6 0 10 5 10 10 0 6 -4 10 -10 10 -5 0
-10 -4 -10 -10z"/>
<path d="M6605 1660 c-10 -11 -16 -23 -12 -26 3 -3 11 3 18 15 11 16 16 18 28
8 11 -10 13 -9 10 2 -8 23 -24 23 -44 1z"/>
<path d="M6375 1412 c-18 -27 -18 -27 2 -9 11 9 23 14 26 10 4 -3 7 -1 7 5 0
23 -19 21 -35 -6z"/>
<path d="M6308 1336 c-23 -17 -23 -25 0 -23 10 0 19 9 19 19 2 21 3 21 -19 4z"/>
<path d="M6200 1160 c0 -5 5 -10 10 -10 6 0 10 5 10 10 0 6 -4 10 -10 10 -5 0
-10 -4 -10 -10z"/>
<path d="M5961 1017 c-6 -8 -8 -17 -4 -20 11 -12 19 -7 20 13 2 24 -1 25 -16
7z"/>
<path d="M5983 989 c-2 -17 1 -18 13 -9 17 15 18 30 1 30 -7 0 -13 -9 -14 -21z"/>
<path d="M4630 660 c0 -5 5 -10 10 -10 6 0 10 5 10 10 0 6 -4 10 -10 10 -5 0
-10 -4 -10 -10z"/>
<path d="M4760 600 c0 -5 5 -10 10 -10 6 0 10 5 10 10 0 6 -4 10 -10 10 -5 0
-10 -4 -10 -10z"/>
<path d="M1765 5025 c-137 -29 -188 -95 -228 -295 -21 -101 -25 -129 -33 -240
-14 -168 -5 -1616 11 -1945 2 -33 7 -134 11 -225 11 -211 11 -608 1 -680 -16
-113 -59 -205 -116 -247 -63 -47 -237 -69 -334 -42 -78 21 -148 114 -176 234
-13 55 -18 118 -26 340 -7 176 -18 238 -56 320 -43 91 -95 140 -180 171 -70
26 -244 21 -384 -10 -43 -9 -114 -46 -149 -76 -62 -55 -84 -184 -62 -380 14
-133 21 -235 31 -430 4 -87 6 -99 26 -185 38 -158 153 -298 319 -388 117 -64
319 -122 485 -141 28 -3 73 -8 100 -12 97 -11 339 -10 424 2 170 24 271 56
430 137 127 64 210 125 311 227 142 143 228 286 272 449 19 74 20 102 19 1166
-2 1056 -4 1288 -16 1425 -10 114 -14 140 -40 296 -10 62 -57 211 -85 272 -59
128 -154 215 -268 248 -71 21 -212 25 -287 9z"/>
<path d="M6952 2550 c-1 -15 -8 -32 -14 -39 -10 -11 -10 -13 0 -7 6 4 12 3 12
-3 0 -5 -4 -11 -10 -13 -5 -1 -11 -12 -13 -24 -1 -12 -11 -34 -21 -49 -10 -15
-13 -24 -7 -21 6 4 11 1 11 -6 1 -9 5 -7 14 5 7 9 17 17 21 17 4 0 2 -7 -5
-14 -8 -11 -9 -20 -1 -33 10 -18 11 -16 11 42 0 3 5 12 11 20 13 18 6 19 -24
5 -22 -10 -22 -10 1 6 12 9 22 22 22 28 0 6 -5 4 -10 -4 -6 -9 -10 -10 -10 -3
0 7 6 16 13 20 8 5 10 22 6 53 -3 25 -7 34 -7 20z"/>
<path d="M6755 1929 c-9 -14 -2 -20 14 -10 8 6 9 11 3 15 -6 3 -14 1 -17 -5z"/>
<path d="M6721 1851 c-8 -5 -9 -11 -3 -15 5 -3 15 1 22 9 14 16 3 20 -19 6z"/>
<path d="M6650 1790 c-6 -12 -9 -24 -6 -28 4 -3 -4 -16 -16 -29 -12 -13 -17
-23 -12 -23 6 0 25 16 44 35 31 32 33 36 18 51 -15 15 -17 15 -28 -6z m24 -9
c3 -5 -1 -11 -9 -14 -9 -4 -12 -1 -8 9 6 16 10 17 17 5z"/>
<path d="M2946 1553 c-11 -11 -7 -20 9 -20 8 0 15 4 15 8 0 11 -16 20 -24 12z"/>
<path d="M6470 1520 c0 -5 5 -10 10 -10 6 0 10 5 10 10 0 6 -4 10 -10 10 -5 0
-10 -4 -10 -10z"/>
<path d="M6259 1208 c-5 -17 -4 -48 3 -48 4 0 8 5 8 10 0 6 3 9 8 9 19 -3 23
2 12 16 -11 13 -28 20 -31 13z"/>
<path d="M3240 1182 c0 -4 4 -13 9 -20 7 -11 9 -11 14 1 3 9 -1 18 -9 21 -8 3
-14 2 -14 -2z"/>
<path d="M6075 1110 c3 -5 8 -10 11 -10 2 0 4 5 4 10 0 6 -5 10 -11 10 -5 0
-7 -4 -4 -10z"/>
<path d="M6015 1090 c-3 -5 -1 -10 4 -10 6 0 11 5 11 10 0 6 -2 10 -4 10 -3 0
-8 -4 -11 -10z"/>
<path d="M3350 1076 c0 -7 14 -24 31 -37 18 -13 39 -31 49 -39 39 -33 83 -65
92 -65 5 0 13 -7 18 -15 5 -8 13 -11 17 -6 4 4 0 13 -9 20 -13 9 -14 16 -6 24
8 8 5 11 -11 9 -11 -1 -21 -5 -21 -9 0 -4 -8 0 -19 11 -10 10 -24 20 -32 23
-9 3 -6 11 10 27 19 19 21 25 10 32 -22 14 -33 11 -20 -5 10 -11 8 -16 -9 -21
-14 -5 -30 2 -53 21 -17 15 -31 31 -29 36 1 4 -2 8 -8 8 -5 0 -10 -6 -10 -14z"/>
<path d="M6135 1071 c-3 -5 -1 -12 5 -16 5 -3 10 1 10 9 0 18 -6 21 -15 7z"/>
<path d="M3570 909 c0 -11 5 -17 10 -14 6 3 10 13 10 21 0 8 -4 14 -10 14 -5
0 -10 -9 -10 -21z"/>
<path d="M5621 844 c-9 -21 -9 -30 1 -41 11 -13 14 -12 29 6 11 14 20 17 24
11 5 -8 11 -7 21 1 14 12 10 29 -7 29 -6 0 -7 -6 -3 -12 6 -10 4 -10 -7 0 -17
16 -29 15 -29 -2 0 -8 -5 -18 -12 -22 -8 -5 -9 -2 -5 9 4 10 10 24 13 32 11
26 -12 16 -25 -11z"/>
<path d="M5315 680 c3 -5 8 -10 11 -10 2 0 4 5 4 10 0 6 -5 10 -11 10 -5 0 -7
-4 -4 -10z"/>
<path d="M4566 651 c-4 -6 -13 -8 -21 -4 -9 3 -15 -1 -16 -8 0 -8 -2 -22 -4
-32 -2 -11 1 -16 8 -14 7 2 11 13 9 23 -2 11 1 15 5 9 14 -18 48 -12 48 9 0
21 -20 33 -29 17z m19 -11 c3 -5 1 -10 -4 -10 -6 0 -11 5 -11 10 0 6 2 10 4
10 3 0 8 -4 11 -10z"/>
<path d="M5065 641 c-3 -5 -1 -12 5 -16 5 -3 10 1 10 9 0 18 -6 21 -15 7z"/>
<path d="M4205 600 c3 -5 8 -10 11 -10 2 0 4 5 4 10 0 6 -5 10 -11 10 -5 0 -7
-4 -4 -10z"/>
<path d="M4499 608 c0 -2 -2 -16 -4 -33 -3 -27 -2 -28 9 -12 13 17 14 17 20 0
7 -17 8 -17 17 0 6 9 14 15 19 12 5 -3 8 4 7 16 l-1 21 -17 -21 c-14 -17 -19
-18 -28 -7 -6 7 -8 16 -4 19 3 4 1 7 -5 7 -7 0 -12 -1 -13 -2z"/>
</g>
</svg>
